<mxfile host="Electron" modified="2025-01-16T10:29:19.387Z" agent="Mozilla/5.0 (Windows NT 10.0; Win64; x64) AppleWebKit/537.36 (KHTML, like Gecko) draw.io/22.1.21 Chrome/120.0.6099.109 Electron/28.1.0 Safari/537.36" etag="Tn-vR84vH9su6tP-0YPg" version="22.1.21" type="device">
  <diagram name="第 1 页" id="UDa9u_ujyHe8IUVfd986">
    <mxGraphModel dx="1434" dy="836" grid="1" gridSize="10" guides="1" tooltips="1" connect="1" arrows="1" fold="1" page="1" pageScale="1" pageWidth="827" pageHeight="1169" math="0" shadow="0">
      <root>
        <mxCell id="0" />
        <mxCell id="1" parent="0" />
        <mxCell id="xseLqkyLjvDdcLyeGnHs-29" style="edgeStyle=orthogonalEdgeStyle;rounded=0;orthogonalLoop=1;jettySize=auto;html=1;exitX=0.5;exitY=0;exitDx=0;exitDy=0;" edge="1" parent="1" source="xseLqkyLjvDdcLyeGnHs-3" target="xseLqkyLjvDdcLyeGnHs-28">
          <mxGeometry relative="1" as="geometry" />
        </mxCell>
        <mxCell id="xseLqkyLjvDdcLyeGnHs-3" value="&lt;b&gt;SimpleAliasRegistry&lt;/b&gt;" style="rounded=1;whiteSpace=wrap;html=1;" vertex="1" parent="1">
          <mxGeometry x="290" y="550" width="160" height="60" as="geometry" />
        </mxCell>
        <mxCell id="xseLqkyLjvDdcLyeGnHs-4" value="用 Map&amp;lt;String,String&amp;gt; 存储别名与真名映射" style="text;html=1;strokeColor=none;fillColor=none;align=center;verticalAlign=middle;whiteSpace=wrap;rounded=0;" vertex="1" parent="1">
          <mxGeometry x="460" y="550" width="130" height="60" as="geometry" />
        </mxCell>
        <mxCell id="xseLqkyLjvDdcLyeGnHs-15" style="edgeStyle=orthogonalEdgeStyle;rounded=0;orthogonalLoop=1;jettySize=auto;html=1;exitX=0.25;exitY=0;exitDx=0;exitDy=0;entryX=0.5;entryY=1;entryDx=0;entryDy=0;" edge="1" parent="1" source="xseLqkyLjvDdcLyeGnHs-8" target="xseLqkyLjvDdcLyeGnHs-3">
          <mxGeometry relative="1" as="geometry" />
        </mxCell>
        <mxCell id="xseLqkyLjvDdcLyeGnHs-27" style="edgeStyle=orthogonalEdgeStyle;rounded=0;orthogonalLoop=1;jettySize=auto;html=1;exitX=0.5;exitY=0;exitDx=0;exitDy=0;" edge="1" parent="1" source="xseLqkyLjvDdcLyeGnHs-8" target="xseLqkyLjvDdcLyeGnHs-23">
          <mxGeometry relative="1" as="geometry" />
        </mxCell>
        <mxCell id="xseLqkyLjvDdcLyeGnHs-8" value="&lt;b&gt;DefaultSingletonBeanRegistry&lt;/b&gt;" style="rounded=1;whiteSpace=wrap;html=1;" vertex="1" parent="1">
          <mxGeometry x="650" y="710" width="200" height="60" as="geometry" />
        </mxCell>
        <mxCell id="xseLqkyLjvDdcLyeGnHs-9" value="管理单例 Bean 实现类，用Map&amp;lt;String,Object&amp;gt; 存储单例&lt;br&gt;包括很多复杂的管理单例功能" style="text;html=1;strokeColor=none;fillColor=none;align=center;verticalAlign=middle;whiteSpace=wrap;rounded=0;" vertex="1" parent="1">
          <mxGeometry x="860" y="710" width="200" height="60" as="geometry" />
        </mxCell>
        <mxCell id="xseLqkyLjvDdcLyeGnHs-20" value="别名能力" style="swimlane;whiteSpace=wrap;html=1;" vertex="1" parent="1">
          <mxGeometry x="280" y="400" width="310" height="230" as="geometry" />
        </mxCell>
        <mxCell id="xseLqkyLjvDdcLyeGnHs-28" value="&lt;b style=&quot;border-color: var(--border-color);&quot;&gt;AliasRegistry&lt;/b&gt;" style="shape=process;whiteSpace=wrap;html=1;backgroundOutline=1;" vertex="1" parent="xseLqkyLjvDdcLyeGnHs-20">
          <mxGeometry x="30" y="40" width="120" height="60" as="geometry" />
        </mxCell>
        <mxCell id="xseLqkyLjvDdcLyeGnHs-2" value="别名功能接口" style="text;html=1;strokeColor=none;fillColor=none;align=center;verticalAlign=middle;whiteSpace=wrap;rounded=0;" vertex="1" parent="xseLqkyLjvDdcLyeGnHs-20">
          <mxGeometry x="160" y="40" width="90" height="60" as="geometry" />
        </mxCell>
        <mxCell id="xseLqkyLjvDdcLyeGnHs-21" value="&lt;u&gt;单例&lt;/u&gt; Bean 管理能力（更强调单例功能性）" style="swimlane;whiteSpace=wrap;html=1;" vertex="1" parent="1">
          <mxGeometry x="640" y="520" width="430" height="390" as="geometry" />
        </mxCell>
        <mxCell id="xseLqkyLjvDdcLyeGnHs-18" value="由 FactoryBean 创建的单例 Bean 支持" style="text;html=1;strokeColor=none;fillColor=none;align=center;verticalAlign=middle;whiteSpace=wrap;rounded=0;" vertex="1" parent="xseLqkyLjvDdcLyeGnHs-21">
          <mxGeometry x="220" y="310" width="210" height="30" as="geometry" />
        </mxCell>
        <mxCell id="xseLqkyLjvDdcLyeGnHs-24" value="&lt;b style=&quot;border-color: var(--border-color);&quot;&gt;FactoryBeanRegistrySupport&lt;/b&gt;" style="rounded=0;whiteSpace=wrap;html=1;" vertex="1" parent="xseLqkyLjvDdcLyeGnHs-21">
          <mxGeometry x="10" y="310" width="200" height="60" as="geometry" />
        </mxCell>
        <mxCell id="xseLqkyLjvDdcLyeGnHs-7" value="最基本的管理单例 Bean 能力接口&lt;br&gt;注册、包含、名称、计数等" style="text;html=1;strokeColor=none;fillColor=none;align=center;verticalAlign=middle;whiteSpace=wrap;rounded=0;" vertex="1" parent="xseLqkyLjvDdcLyeGnHs-21">
          <mxGeometry x="210" y="40" width="190" height="60" as="geometry" />
        </mxCell>
        <mxCell id="xseLqkyLjvDdcLyeGnHs-23" value="&lt;b style=&quot;border-color: var(--border-color);&quot;&gt;SingletonBeanRegistry&lt;/b&gt;" style="shape=process;whiteSpace=wrap;html=1;backgroundOutline=1;" vertex="1" parent="xseLqkyLjvDdcLyeGnHs-21">
          <mxGeometry x="25" y="40" width="170" height="60" as="geometry" />
        </mxCell>
        <mxCell id="xseLqkyLjvDdcLyeGnHs-25" style="edgeStyle=orthogonalEdgeStyle;rounded=0;orthogonalLoop=1;jettySize=auto;html=1;exitX=0.5;exitY=0;exitDx=0;exitDy=0;entryX=0.5;entryY=1;entryDx=0;entryDy=0;" edge="1" parent="1" source="xseLqkyLjvDdcLyeGnHs-24" target="xseLqkyLjvDdcLyeGnHs-8">
          <mxGeometry relative="1" as="geometry" />
        </mxCell>
        <mxCell id="xseLqkyLjvDdcLyeGnHs-39" style="edgeStyle=orthogonalEdgeStyle;rounded=0;orthogonalLoop=1;jettySize=auto;html=1;exitX=0.5;exitY=0;exitDx=0;exitDy=0;" edge="1" parent="1" source="xseLqkyLjvDdcLyeGnHs-30" target="xseLqkyLjvDdcLyeGnHs-37">
          <mxGeometry relative="1" as="geometry" />
        </mxCell>
        <mxCell id="xseLqkyLjvDdcLyeGnHs-41" style="edgeStyle=orthogonalEdgeStyle;rounded=0;orthogonalLoop=1;jettySize=auto;html=1;exitX=0.25;exitY=0;exitDx=0;exitDy=0;" edge="1" parent="1" source="xseLqkyLjvDdcLyeGnHs-30" target="xseLqkyLjvDdcLyeGnHs-24">
          <mxGeometry relative="1" as="geometry" />
        </mxCell>
        <mxCell id="xseLqkyLjvDdcLyeGnHs-30" value="&lt;b style=&quot;border-color: var(--border-color);&quot;&gt;AbstractBeanFactory&lt;/b&gt;" style="rounded=0;whiteSpace=wrap;html=1;" vertex="1" parent="1">
          <mxGeometry x="1177.5" y="1040" width="150" height="60" as="geometry" />
        </mxCell>
        <mxCell id="xseLqkyLjvDdcLyeGnHs-31" value="&lt;b&gt;BeanFactory&lt;/b&gt;" style="shape=process;whiteSpace=wrap;html=1;backgroundOutline=1;" vertex="1" parent="1">
          <mxGeometry x="1192.5" y="600" width="120" height="60" as="geometry" />
        </mxCell>
        <mxCell id="xseLqkyLjvDdcLyeGnHs-34" style="edgeStyle=orthogonalEdgeStyle;rounded=0;orthogonalLoop=1;jettySize=auto;html=1;exitX=0.5;exitY=0;exitDx=0;exitDy=0;entryX=0.5;entryY=1;entryDx=0;entryDy=0;" edge="1" parent="1" source="xseLqkyLjvDdcLyeGnHs-32" target="xseLqkyLjvDdcLyeGnHs-31">
          <mxGeometry relative="1" as="geometry" />
        </mxCell>
        <mxCell id="xseLqkyLjvDdcLyeGnHs-32" value="&lt;b&gt;HierarchicalBeanFactory&lt;/b&gt;" style="shape=process;whiteSpace=wrap;html=1;backgroundOutline=1;" vertex="1" parent="1">
          <mxGeometry x="1152.5" y="720" width="200" height="60" as="geometry" />
        </mxCell>
        <mxCell id="xseLqkyLjvDdcLyeGnHs-35" value="定义了各种方式获取 Bean 的入口，即 getBean 方法" style="text;html=1;strokeColor=none;fillColor=none;align=center;verticalAlign=middle;whiteSpace=wrap;rounded=0;" vertex="1" parent="1">
          <mxGeometry x="1322.5" y="600" width="200" height="60" as="geometry" />
        </mxCell>
        <mxCell id="xseLqkyLjvDdcLyeGnHs-36" value="支持父级 BeanFactory" style="text;html=1;strokeColor=none;fillColor=none;align=center;verticalAlign=middle;whiteSpace=wrap;rounded=0;" vertex="1" parent="1">
          <mxGeometry x="1362.5" y="720" width="140" height="60" as="geometry" />
        </mxCell>
        <mxCell id="xseLqkyLjvDdcLyeGnHs-40" style="edgeStyle=orthogonalEdgeStyle;rounded=0;orthogonalLoop=1;jettySize=auto;html=1;exitX=0.5;exitY=0;exitDx=0;exitDy=0;" edge="1" parent="1" source="xseLqkyLjvDdcLyeGnHs-37" target="xseLqkyLjvDdcLyeGnHs-32">
          <mxGeometry relative="1" as="geometry" />
        </mxCell>
        <mxCell id="xseLqkyLjvDdcLyeGnHs-37" value="&lt;b&gt;ConfigurableBeanFactory&lt;/b&gt;" style="shape=process;whiteSpace=wrap;html=1;backgroundOutline=1;" vertex="1" parent="1">
          <mxGeometry x="1152.5" y="840" width="200" height="60" as="geometry" />
        </mxCell>
        <mxCell id="xseLqkyLjvDdcLyeGnHs-38" value="BeanFactory 应具备的全部功能" style="text;html=1;strokeColor=none;fillColor=none;align=center;verticalAlign=middle;whiteSpace=wrap;rounded=0;" vertex="1" parent="1">
          <mxGeometry x="1362.5" y="840" width="170" height="30" as="geometry" />
        </mxCell>
        <mxCell id="xseLqkyLjvDdcLyeGnHs-42" value="&lt;b&gt;可作为 BeanFactory 的基类&lt;/b&gt;&lt;br&gt;提供了一个 BeanFactory 具体实现" style="text;html=1;strokeColor=none;fillColor=none;align=center;verticalAlign=middle;whiteSpace=wrap;rounded=0;" vertex="1" parent="1">
          <mxGeometry x="1342.5" y="1040" width="200" height="60" as="geometry" />
        </mxCell>
        <mxCell id="xseLqkyLjvDdcLyeGnHs-43" value="&lt;b&gt;AutowireCapableBeanFactory&lt;/b&gt;" style="shape=process;whiteSpace=wrap;html=1;backgroundOutline=1;" vertex="1" parent="1">
          <mxGeometry x="1592.5" y="1040" width="240" height="60" as="geometry" />
        </mxCell>
        <mxCell id="xseLqkyLjvDdcLyeGnHs-45" value="扩展接口，提供 &lt;b&gt;自动装配&lt;/b&gt; 能力，用户自定义 Bean 的生命周期&lt;br&gt;createBean 创建 Bean 能力&lt;br&gt;autowireBean configureBean 等" style="text;html=1;strokeColor=none;fillColor=none;align=center;verticalAlign=middle;whiteSpace=wrap;rounded=0;" vertex="1" parent="1">
          <mxGeometry x="1842.5" y="1040" width="190" height="70" as="geometry" />
        </mxCell>
        <mxCell id="xseLqkyLjvDdcLyeGnHs-48" style="edgeStyle=orthogonalEdgeStyle;rounded=0;orthogonalLoop=1;jettySize=auto;html=1;exitX=0.5;exitY=0;exitDx=0;exitDy=0;" edge="1" parent="1" source="xseLqkyLjvDdcLyeGnHs-46" target="xseLqkyLjvDdcLyeGnHs-30">
          <mxGeometry relative="1" as="geometry" />
        </mxCell>
        <mxCell id="xseLqkyLjvDdcLyeGnHs-49" style="edgeStyle=orthogonalEdgeStyle;rounded=0;orthogonalLoop=1;jettySize=auto;html=1;exitX=0.75;exitY=0;exitDx=0;exitDy=0;" edge="1" parent="1" source="xseLqkyLjvDdcLyeGnHs-46" target="xseLqkyLjvDdcLyeGnHs-43">
          <mxGeometry relative="1" as="geometry">
            <Array as="points">
              <mxPoint x="1313.5" y="1160" />
              <mxPoint x="1712.5" y="1160" />
            </Array>
          </mxGeometry>
        </mxCell>
        <mxCell id="xseLqkyLjvDdcLyeGnHs-46" value="&lt;b&gt;AbstractAutowireCapableBeanFactory&lt;/b&gt;" style="rounded=0;whiteSpace=wrap;html=1;" vertex="1" parent="1">
          <mxGeometry x="1130" y="1360" width="245" height="60" as="geometry" />
        </mxCell>
        <mxCell id="xseLqkyLjvDdcLyeGnHs-50" value="&lt;b&gt;ListableBeanFactory&lt;/b&gt;" style="shape=process;whiteSpace=wrap;html=1;backgroundOutline=1;" vertex="1" parent="1">
          <mxGeometry x="1627.5" y="1240" width="170" height="60" as="geometry" />
        </mxCell>
        <mxCell id="xseLqkyLjvDdcLyeGnHs-52" style="edgeStyle=orthogonalEdgeStyle;rounded=0;orthogonalLoop=1;jettySize=auto;html=1;exitX=0.5;exitY=0;exitDx=0;exitDy=0;" edge="1" parent="1" source="xseLqkyLjvDdcLyeGnHs-51" target="xseLqkyLjvDdcLyeGnHs-50">
          <mxGeometry relative="1" as="geometry" />
        </mxCell>
        <mxCell id="xseLqkyLjvDdcLyeGnHs-51" value="&lt;b&gt;ConfigurableListableBeanFactory&lt;/b&gt;" style="shape=process;whiteSpace=wrap;html=1;backgroundOutline=1;" vertex="1" parent="1">
          <mxGeometry x="1580" y="1360" width="265" height="60" as="geometry" />
        </mxCell>
        <mxCell id="xseLqkyLjvDdcLyeGnHs-54" style="edgeStyle=orthogonalEdgeStyle;rounded=0;orthogonalLoop=1;jettySize=auto;html=1;exitX=0.5;exitY=0;exitDx=0;exitDy=0;" edge="1" parent="1" source="xseLqkyLjvDdcLyeGnHs-53" target="xseLqkyLjvDdcLyeGnHs-46">
          <mxGeometry relative="1" as="geometry" />
        </mxCell>
        <mxCell id="xseLqkyLjvDdcLyeGnHs-55" style="edgeStyle=orthogonalEdgeStyle;rounded=0;orthogonalLoop=1;jettySize=auto;html=1;exitX=0.75;exitY=0;exitDx=0;exitDy=0;entryX=0.5;entryY=1;entryDx=0;entryDy=0;" edge="1" parent="1" source="xseLqkyLjvDdcLyeGnHs-53" target="xseLqkyLjvDdcLyeGnHs-51">
          <mxGeometry relative="1" as="geometry">
            <Array as="points">
              <mxPoint x="1305.5" y="1480" />
              <mxPoint x="1712.5" y="1480" />
            </Array>
          </mxGeometry>
        </mxCell>
        <mxCell id="xseLqkyLjvDdcLyeGnHs-53" value="&lt;b&gt;DefaultListableBeanFactory&lt;/b&gt;" style="rounded=1;whiteSpace=wrap;html=1;" vertex="1" parent="1">
          <mxGeometry x="1147.5" y="1560" width="210" height="60" as="geometry" />
        </mxCell>
        <mxCell id="xseLqkyLjvDdcLyeGnHs-56" value="BeanFactory 概要" style="swimlane;whiteSpace=wrap;html=1;" vertex="1" parent="1">
          <mxGeometry x="1120" y="560" width="920" height="1080" as="geometry" />
        </mxCell>
      </root>
    </mxGraphModel>
  </diagram>
</mxfile>
